<svg width="30.000000" height="30.000000" viewBox="0 0 30 30" fill="none" xmlns="http://www.w3.org/2000/svg" xmlns:xlink="http://www.w3.org/1999/xlink">
	<desc>
			Created with Pixso.
	</desc>
	<defs>
		<clipPath id="clip261_1054">
			<rect id="Arrow Right" width="30.000000" height="30.000000" fill="white" fill-opacity="0"/>
		</clipPath>
	</defs>
	<g clip-path="url(#clip261_1054)">
		<path id="Arrow Right" d="M16.67 4.29C17.06 3.9 17.69 3.9 18.08 4.28L27.7 13.78C27.89 13.97 28 14.23 28 14.5C28 14.76 27.89 15.02 27.7 15.21L18.08 24.71C17.69 25.09 17.06 25.09 16.67 24.7C16.28 24.31 16.28 23.67 16.68 23.28L24.56 15.5L2 15.5C1.44 15.5 1 15.05 1 14.5C1 13.94 1.44 13.5 2 13.5L24.56 13.5L16.68 5.71C16.28 5.32 16.28 4.68 16.67 4.29Z" fill="#000000" stroke="#ffffff" stroke-width="1px" fill-opacity="1.000000" fill-rule="evenodd"/>
	</g>
</svg>
