<svg width="30.000000" height="30.000000" viewBox="0 0 30 30" fill="none" xmlns="http://www.w3.org/2000/svg" xmlns:xlink="http://www.w3.org/1999/xlink">
	<desc>
			Created with Pixso.
	</desc>
	<defs>
		<clipPath id="clip305_3423">
			<rect id="Arrow Left" width="30.000000" height="30.000000" fill="white" fill-opacity="0"/>
		</clipPath>
	</defs>
	<g clip-path="url(#clip305_3423)">
		<path id="Arrow Left" d="M12.32 5.29C11.93 4.9 11.3 4.9 10.91 5.28L1.29 14.78C1.1 14.97 1 15.23 1 15.5C1 15.76 1.1 16.02 1.29 16.21L10.91 25.71C11.3 26.09 11.93 26.09 12.32 25.7C12.71 25.31 12.71 24.67 12.31 24.28L4.43 16.5L27 16.5C27.55 16.5 28 16.05 28 15.5C28 14.94 27.55 14.5 27 14.5L4.43 14.5L12.31 6.71C12.71 6.32 12.71 5.68 12.32 5.29Z" fill="#000000" stroke="#ffffff" stroke-width="1px" fill-opacity="1.000000" fill-rule="evenodd"/>
	</g>
</svg>
 
