<svg width="30.000000" height="30.000000" viewBox="0 0 30 30" fill="none" xmlns="http://www.w3.org/2000/svg" xmlns:xlink="http://www.w3.org/1999/xlink">
	<desc>
			Created with Pixso.
	</desc>
	<defs>
		<clipPath id="clip305_3375">
			<rect id="View" width="30.000000" height="30.000000" fill="white" fill-opacity="0"/>
		</clipPath>
	</defs>
	<g clip-path="url(#clip305_3375)">
		<path id="View" d="M26.76 13.61C22.08 7.73 17.12 6.34 12.75 7.25C8.52 8.14 5.09 11.16 3.22 13.63C2.92 14.02 2.92 14.55 3.21 14.94C5.62 18.17 8.08 20.19 10.51 21.28C12.96 22.37 15.32 22.49 17.48 21.98C21.72 20.98 25.05 17.61 26.82 14.88C27.07 14.49 27.05 13.98 26.76 13.61ZM11.4 19.29C9.55 18.46 7.55 16.91 5.47 14.3C7.22 12.25 9.99 10.06 13.2 9.39C16.49 8.7 20.46 9.54 24.54 14.35C22.87 16.65 20.16 19.11 16.98 19.85C15.27 20.26 13.39 20.18 11.4 19.29ZM19.36 14.63C19.36 17.04 17.41 19 15 19C12.58 19 10.63 17.04 10.63 14.63C10.63 12.22 12.58 10.27 15 10.27C17.41 10.27 19.36 12.22 19.36 14.63ZM17.18 14.63C17.18 15.84 16.2 16.81 15 16.81C13.79 16.81 12.81 15.84 12.81 14.63C12.81 13.43 13.79 12.45 15 12.45C16.2 12.45 17.18 13.43 17.18 14.63Z" fill="#777777" fill-opacity="1.000000" fill-rule="evenodd"/>
	</g>
</svg>
