<svg width="18.000000" height="13.000000" viewBox="0 0 18 13" fill="none" xmlns="http://www.w3.org/2000/svg" xmlns:xlink="http://www.w3.org/1999/xlink">
	<desc>
			Created with Pixso.
	</desc>
	<defs/>
	<path id="icon" d="M8.75 -0.12C12.27 -0.12 15.31 1.96 16.69 4.97C16.99 5.62 16.99 6.37 16.69 7.02C15.31 10.03 12.27 12.11 8.75 12.11C5.22 12.11 2.18 10.03 0.8 7.02C0.5 6.37 0.5 5.62 0.8 4.97C2.18 1.96 5.22 -0.12 8.75 -0.12ZM8.75 8.62C7.3 8.62 6.12 7.44 6.12 6C6.12 4.55 7.3 3.37 8.75 3.37C10.19 3.37 11.37 4.55 11.37 6C11.37 7.44 10.19 8.62 8.75 8.62Z" stroke="#2F59ED" stroke-opacity="1.000000" stroke-width="1.748387"/>
</svg>
