<svg width="32" height="35" viewBox="0 0 32 35" fill="none" xmlns="http://www.w3.org/2000/svg">
<g filter="url(#filter0_d_30_1279)">
<path fill-rule="evenodd" clip-rule="evenodd" d="M13.6176 20.2353C17.8247 20.2353 21.2353 16.8247 21.2353 12.6176C21.2353 8.41053 17.8247 5 13.6176 5C9.41053 5 6 8.41053 6 12.6176C6 16.8247 9.41053 20.2353 13.6176 20.2353ZM13.6176 22.2353C18.9293 22.2353 23.2353 17.9293 23.2353 12.6176C23.2353 7.30596 18.9293 3 13.6176 3C8.30596 3 4 7.30596 4 12.6176C4 17.9293 8.30596 22.2353 13.6176 22.2353Z" fill="#777777"/>
<path d="M19.4746 18.5342C19.8821 18.1267 20.5428 18.1267 20.9503 18.5342L27.2621 24.8461C27.6697 25.2536 27.6697 25.9143 27.2621 26.3218C26.8546 26.7293 26.194 26.7293 25.7864 26.3218L19.4746 20.0099C19.0671 19.6024 19.0671 18.9417 19.4746 18.5342Z" fill="#777777"/>
</g>
<defs>
<filter id="filter0_d_30_1279" x="-3" y="0" width="38" height="38" filterUnits="userSpaceOnUse" color-interpolation-filters="sRGB">
<feFlood flood-opacity="0" result="BackgroundImageFix"/>
<feColorMatrix in="SourceAlpha" type="matrix" values="0 0 0 0 0 0 0 0 0 0 0 0 0 0 0 0 0 0 127 0" result="hardAlpha"/>
<feOffset dy="4"/>
<feGaussianBlur stdDeviation="2"/>
<feComposite in2="hardAlpha" operator="out"/>
<feColorMatrix type="matrix" values="0 0 0 0 0 0 0 0 0 0 0 0 0 0 0 0 0 0 0.25 0"/>
<feBlend mode="normal" in2="BackgroundImageFix" result="effect1_dropShadow_30_1279"/>
<feBlend mode="normal" in="SourceGraphic" in2="effect1_dropShadow_30_1279" result="shape"/>
</filter>
</defs>
</svg>
