<svg width="17.000000" height="17.000000" viewBox="0 0 17 17" fill="none" xmlns="http://www.w3.org/2000/svg" xmlns:xlink="http://www.w3.org/1999/xlink">
	<desc>
			Created with Pixso.
	</desc>
	<defs/>
	<path id="icon" d="M5.37 1.88L2.92 1.88C1.95 1.88 1.46 1.88 1.08 2.07C0.75 2.23 0.49 2.5 0.32 2.83C0.13 3.2 0.13 3.69 0.13 4.67L0.13 13.07C0.13 14.04 0.13 14.53 0.32 14.91C0.49 15.24 0.75 15.5 1.08 15.67C1.46 15.86 1.95 15.86 2.92 15.86L13.07 15.86C14.04 15.86 14.53 15.86 14.91 15.67C15.24 15.5 15.5 15.24 15.67 14.91C15.86 14.53 15.86 14.04 15.86 13.07L15.86 4.67C15.86 3.69 15.86 3.2 15.67 2.83C15.5 2.5 15.24 2.23 14.91 2.07C14.53 1.88 14.04 1.88 13.07 1.88L10.62 1.88L5.37 1.88ZM10 7.41L10 7.38C10.35 7.03 10.89 7.03 11.24 7.38C11.58 7.72 11.58 8.27 11.24 8.61L11.21 8.61L10 7.41ZM4.78 10.36L4.75 10.36C4.41 10.02 4.41 9.47 4.75 9.13C5.1 8.78 5.64 8.78 5.99 9.13L5.99 9.15L4.78 10.36ZM0.15 6.23L0.13 6.25C-0.36 6.25 -0.75 5.86 -0.75 5.37C-0.75 4.88 -0.36 4.5 0.13 4.5L0.15 4.52L0.15 6.23ZM15.84 4.52L15.86 4.5C16.35 4.5 16.74 4.88 16.74 5.37C16.74 5.86 16.35 6.25 15.86 6.25L15.84 6.23L15.84 4.52ZM3.6 1.86L3.62 1.88C3.62 2.37 3.24 2.75 2.75 2.75C2.26 2.75 1.88 2.37 1.88 1.88L1.9 1.86L3.6 1.86ZM14.09 1.86L14.11 1.88C14.11 2.37 13.73 2.75 13.24 2.75C12.75 2.75 12.37 2.37 12.37 1.88L12.39 1.86L14.09 1.86Z" fill="#FFFFFF" fill-opacity="1.000000" fill-rule="nonzero"/>
	<path id="icon" d="M5.37 9.74L6.81 11.18C6.98 11.35 7.26 11.35 7.43 11.18L10.62 8M0.13 5.37L15.86 5.37M5.37 1.88L10.62 1.88L13.07 1.88C14.04 1.88 14.53 1.88 14.91 2.07C15.24 2.23 15.5 2.5 15.67 2.83C15.86 3.2 15.86 3.69 15.86 4.67L15.86 13.07C15.86 14.04 15.86 14.53 15.67 14.91C15.5 15.24 15.24 15.5 14.91 15.67C14.53 15.86 14.04 15.86 13.07 15.86L2.92 15.86C1.95 15.86 1.46 15.86 1.08 15.67C0.75 15.5 0.49 15.24 0.32 14.91C0.13 14.53 0.13 14.04 0.13 13.07L0.13 4.67C0.13 3.69 0.13 3.2 0.32 2.83C0.49 2.5 0.75 2.23 1.08 2.07C1.46 1.88 1.95 1.88 2.92 1.88L5.37 1.88ZM2.75 1.88L2.75 1.44C2.75 0.71 3.34 0.13 4.06 0.13C4.79 0.13 5.37 0.71 5.37 1.44L5.37 1.88M10.62 1.88L10.62 1.44C10.62 0.71 11.2 0.13 11.93 0.13C12.65 0.13 13.24 0.71 13.24 1.44L13.24 " stroke="#2F59ED" stroke-opacity="1.000000" stroke-width="1.748387"/>
</svg>
