<svg width="170" height="30" viewBox="0 0 170 30" fill="none" xmlns="http://www.w3.org/2000/svg">
<path fill-rule="evenodd" clip-rule="evenodd" d="M6.71367 10.1912C6.77142 9.66183 7.21849 9.26087 7.75099 9.26087H23.1186C23.6511 9.26087 24.0982 9.66183 24.1559 10.1912L25.8634 25.8434C25.8956 26.1381 25.8008 26.4325 25.6029 26.6532C25.405 26.8739 25.1225 27 24.8261 27H6.04348C5.74704 27 5.46458 26.8739 5.26665 26.6532C5.06873 26.4325 4.97401 26.1381 5.00616 25.8434L6.71367 10.1912ZM8.68683 11.3478L7.20699 24.913H23.6626L22.1827 11.3478H8.68683Z" fill="#777777"/>
<path fill-rule="evenodd" clip-rule="evenodd" d="M13.791 5.8662C13.4677 6.33774 13.3478 6.93964 13.3478 7.33043V13.4348C13.3478 14.0111 12.8807 14.4783 12.3044 14.4783C11.7281 14.4783 11.2609 14.0111 11.2609 13.4348V7.33043C11.2609 6.62557 11.4541 5.584 12.0699 4.68597C12.7236 3.73259 13.8206 3 15.4348 3C17.049 3 18.146 3.73259 18.7997 4.68597C19.4155 5.584 19.6087 6.62557 19.6087 7.33043V13.4348C19.6087 14.0111 19.1415 14.4783 18.5652 14.4783C17.9889 14.4783 17.5217 14.0111 17.5217 13.4348V7.33043C17.5217 6.93964 17.4019 6.33774 17.0785 5.8662C16.7932 5.45002 16.3249 5.08696 15.4348 5.08696C14.5447 5.08696 14.0764 5.45002 13.791 5.8662Z" fill="#777777"/>
<path fill-rule="evenodd" clip-rule="evenodd" d="M82.6176 20.2353C86.8247 20.2353 90.2353 16.8247 90.2353 12.6176C90.2353 8.41053 86.8247 5 82.6176 5C78.4105 5 75 8.41053 75 12.6176C75 16.8247 78.4105 20.2353 82.6176 20.2353ZM82.6176 22.2353C87.9293 22.2353 92.2353 17.9293 92.2353 12.6176C92.2353 7.30596 87.9293 3 82.6176 3C77.306 3 73 7.30596 73 12.6176C73 17.9293 77.306 22.2353 82.6176 22.2353Z" fill="#777777"/>
<path d="M88.4746 18.5342C88.8821 18.1267 89.5428 18.1267 89.9503 18.5342L96.2621 24.8461C96.6697 25.2536 96.6697 25.9143 96.2621 26.3218C95.8546 26.7293 95.194 26.7293 94.7864 26.3218L88.4746 20.0099C88.0671 19.6024 88.0671 18.9417 88.4746 18.5342Z" fill="#777777"/>
<path fill-rule="evenodd" clip-rule="evenodd" d="M155.047 11C156.704 11 158.047 9.65685 158.047 8C158.047 6.34315 156.704 5 155.047 5C153.39 5 152.047 6.34315 152.047 8C152.047 9.65685 153.39 11 155.047 11ZM155.047 13C157.809 13 160.047 10.7614 160.047 8C160.047 5.23858 157.809 3 155.047 3C152.286 3 150.047 5.23858 150.047 8C150.047 10.7614 152.286 13 155.047 13Z" fill="#777777"/>
<path fill-rule="evenodd" clip-rule="evenodd" d="M148.167 17.6481C149.559 15.6501 151.774 14 155.047 14C158.32 14 160.535 15.6501 161.928 17.6481C163.295 19.6104 163.898 21.9333 164.043 23.4936L164.1 24.1096L163.575 24.436C156.097 29.0791 149.084 26.3874 146.443 24.383L146 24.047L146.052 23.4936C146.197 21.9333 146.799 19.6104 148.167 17.6481ZM148.115 23.1127C150.523 24.663 156.003 26.463 161.971 23.0632C161.764 21.8042 161.247 20.169 160.287 18.7917C159.186 17.212 157.534 16 155.047 16C152.56 16 150.909 17.212 149.808 18.7917C148.835 20.1871 148.316 21.8473 148.115 23.1127Z" fill="#777777"/>
</svg>
