<svg width="18.000000" height="17.000000" viewBox="0 0 18 17" fill="none" xmlns="http://www.w3.org/2000/svg" xmlns:xlink="http://www.w3.org/1999/xlink">
	<desc>
			Created with Pixso.
	</desc>
	<defs/>
	<path id="icon" d="M13.57 15.86C14.54 15.86 15.03 15.86 15.41 15.67C15.74 15.5 16 15.24 16.17 14.91C16.36 14.53 16.36 14.04 16.36 13.07L16.36 5.55C16.36 4.57 16.36 4.08 16.17 3.7C16 3.38 15.74 3.11 15.41 2.94C15.03 2.75 14.54 2.75 13.57 2.75L3.42 2.75C2.45 2.75 1.96 2.75 1.58 2.94C1.25 3.11 0.99 3.38 0.82 3.7C0.63 4.08 0.63 4.57 0.63 5.55L0.63 13.07C0.63 14.04 0.63 14.53 0.82 14.91C0.99 15.24 1.25 15.5 1.58 15.67C1.96 15.86 2.45 15.86 3.42 15.86L13.57 15.86ZM11.12 0.13L8.56 2.69C8.52 2.72 8.47 2.72 8.43 2.69L5.87 0.13M5 11.49L7.28 9.04C7.31 9.01 7.35 9.01 7.39 9.03L9.59 10.21C9.63 10.23 9.68 10.22 9.71 10.18L11.99 " stroke="#2F59ED" stroke-opacity="1.000000" stroke-width="1.748387"/>
</svg>
