<svg width="28.000000" height="21.000000" viewBox="0 0 28 21" fill="none" xmlns="http://www.w3.org/2000/svg" xmlns:xlink="http://www.w3.org/1999/xlink">
	<desc>
			Created with Pixso.
	</desc>
	<defs/>
	<path id="view 2 (Stroke)" d="M13.68 2C8.61 2 4.24 5 2.25 9.32C1.91 10.07 1.91 10.92 2.25 11.67C4.24 15.99 8.61 19 13.68 19C18.75 19 23.12 15.99 25.11 11.67C25.45 10.92 25.45 10.07 25.11 9.32C23.12 5 18.75 2 13.68 2ZM0.43 8.49C2.74 3.48 7.8 0 13.68 0C19.56 0 24.62 3.48 26.93 8.49C27.51 9.76 27.51 11.23 26.93 12.5C24.62 17.51 19.56 21 13.68 21C7.8 21 2.74 17.51 0.43 12.5C-0.15 11.23 -0.15 9.76 0.43 8.49ZM13.68 7.42C11.98 7.42 10.61 8.8 10.61 10.5C10.61 12.19 11.98 13.57 13.68 13.57C15.38 13.57 16.75 12.19 16.75 10.5C16.75 8.8 15.38 7.42 13.68 7.42ZM8.61 10.5C8.61 7.69 10.88 5.42 13.68 5.42C16.48 5.42 18.75 7.69 18.75 10.5C18.75 13.3 16.48 15.57 13.68 15.57C10.88 15.57 8.61 13.3 8.61 10.5Z" fill="#777777" fill-opacity="1.000000" fill-rule="evenodd"/>
</svg>
