<svg width="17.000000" height="17.000000" viewBox="0 0 17 17" fill="none" xmlns="http://www.w3.org/2000/svg" xmlns:xlink="http://www.w3.org/1999/xlink">
	<desc>
			Created with Pixso.
	</desc>
	<defs/>
	<path id="icon" d="M10.52 3.19C10.64 3.19 10.75 3.19 10.87 3.19C12.6 3.19 13.5 3.21 14.2 3.57C14.86 3.9 15.4 4.44 15.73 5.1C16.11 5.84 16.11 6.82 16.11 8.78L16.11 9.83C16.11 11.79 16.11 12.77 15.73 13.52C15.4 14.17 14.86 14.71 14.2 15.04C13.46 15.43 12.48 15.43 10.52 15.43L5.97 15.43C4.01 15.43 3.03 15.43 2.29 15.04C1.63 14.71 1.09 14.17 0.76 13.52C0.38 12.77 0.38 11.79 0.38 9.83L0.38 8.78C0.38 6.82 0.38 5.84 0.76 5.1C1.09 4.44 1.63 3.9 2.29 3.57C2.99 3.21 3.89 3.19 5.62 3.19C5.74 3.19 5.85 3.19 5.97 3.19L10.52 3.19ZM8.25 11.93C6.8 11.93 5.62 10.75 5.62 9.31C5.62 7.86 6.8 6.68 8.25 6.68C9.69 6.68 10.87 7.86 10.87 9.31C10.87 10.75 9.69 11.93 8.25 11.93ZM5.62 3.19L5.62 2.31C5.62 1.35 6.41 0.56 7.37 0.56L9.12 0.56C10.08 0.56 10.87 1.35 10.87 2.31L10.87 " stroke="#2F59ED" stroke-opacity="1.000000" stroke-width="1.748387"/>
</svg>
