<svg width="114" height="29" viewBox="0 0 114 29" fill="none" xmlns="http://www.w3.org/2000/svg">
<rect x="8.55249" y="6.04907" width="3.8643" height="6.60638" transform="rotate(45 8.55249 6.04907)" fill="#2F59ED"/>
<rect x="14.6921" y="6.70871" width="3.8643" height="10.2683" transform="rotate(45 14.6921 6.70871)" fill="#2F59ED"/>
<rect x="20.8337" y="7.06516" width="3.8643" height="14.359" transform="rotate(45 20.8337 7.06516)" fill="#2F59ED"/>
<g filter="url(#filter0_d_30_1258)">
<mask id="path-4-outside-1_30_1258" maskUnits="userSpaceOnUse" x="27.9998" y="5" width="82" height="17" fill="black">
<rect fill="white" x="27.9998" y="5" width="82" height="17"/>
<path d="M35.1112 20.268C34.1582 20.268 33.2975 20.1013 32.5291 19.7677C31.7666 19.4282 31.1382 18.9457 30.6438 18.3202C30.1553 17.6888 29.8456 16.9383 29.7146 16.0686L32.2521 15.6934C32.4308 16.432 32.8001 17.0008 33.36 17.3999C33.9199 17.799 34.5573 17.9986 35.2721 17.9986C35.6712 17.9986 36.0584 17.936 36.4336 17.8109C36.8089 17.6859 37.1157 17.5012 37.3539 17.257C37.5981 17.0128 37.7202 16.7119 37.7202 16.3545C37.7202 16.2235 37.6994 16.0984 37.6577 15.9793C37.622 15.8542 37.5594 15.738 37.4701 15.6308C37.3807 15.5236 37.2527 15.4223 37.0859 15.327C36.925 15.2317 36.7195 15.1454 36.4694 15.0679L33.1277 14.0851C32.8775 14.0136 32.5856 13.9123 32.2521 13.7813C31.9245 13.6502 31.6058 13.4626 31.296 13.2184C30.9863 12.9742 30.7272 12.6525 30.5187 12.2534C30.3162 11.8484 30.2149 11.3391 30.2149 10.7255C30.2149 9.86183 30.4323 9.14406 30.8672 8.57222C31.302 8.00039 31.8828 7.57449 32.6095 7.29453C33.3362 7.01457 34.1403 6.87756 35.0219 6.88352C35.9094 6.89543 36.7017 7.04733 37.3986 7.3392C38.0955 7.63108 38.6793 8.05698 39.1498 8.6169C39.6204 9.17086 39.9599 9.84992 40.1684 10.6541L37.5415 11.1008C37.4462 10.6838 37.2705 10.3324 37.0144 10.0465C36.7583 9.76057 36.4515 9.54315 36.0941 9.39424C35.7427 9.24532 35.3733 9.16491 34.9862 9.15299C34.6049 9.14108 34.2446 9.19469 33.905 9.31382C33.5715 9.427 33.2975 9.59378 33.083 9.81418C32.8745 10.0346 32.7703 10.2967 32.7703 10.6005C32.7703 10.8804 32.8567 11.1097 33.0294 11.2884C33.2022 11.4612 33.4196 11.6012 33.6817 11.7084C33.9438 11.8156 34.2118 11.905 34.4858 11.9764L36.7195 12.584C37.0531 12.6734 37.4224 12.7925 37.8275 12.9414C38.2325 13.0844 38.6197 13.2869 38.989 13.549C39.3643 13.8051 39.671 14.1446 39.9093 14.5676C40.1535 14.9905 40.2756 15.5266 40.2756 16.1758C40.2756 16.8668 40.1297 17.4714 39.8378 17.9896C39.5519 18.5019 39.1647 18.9278 38.6763 19.2673C38.1878 19.6009 37.6339 19.8511 37.0144 20.0179C36.4009 20.1847 35.7665 20.268 35.1112 20.268ZM53.8549 20V14.2995C53.8549 13.6622 53.703 13.1678 53.3992 12.8163C53.1014 12.4589 52.6874 12.2802 52.1573 12.2802C51.8178 12.2802 51.5229 12.3606 51.2727 12.5215C51.0225 12.6763 50.826 12.8967 50.683 13.1826C50.546 13.4626 50.4775 13.7872 50.4775 14.1566L49.4589 13.4775C49.4589 12.8163 49.6138 12.2326 49.9235 11.7263C50.2393 11.2199 50.6592 10.8268 51.1834 10.5468C51.7135 10.2609 52.3002 10.118 52.9436 10.118C54.0455 10.118 54.8765 10.4456 55.4364 11.1008C56.0023 11.7501 56.2852 12.6019 56.2852 13.6562V20H53.8549ZM42.2216 20V10.3503H44.366V13.549H44.6698V20H42.2216ZM48.0472 20V14.2995C48.0472 13.6622 47.8953 13.1678 47.5915 12.8163C47.2937 12.4589 46.8797 12.2802 46.3496 12.2802C45.8433 12.2802 45.4352 12.4559 45.1255 12.8074C44.8217 13.1529 44.6698 13.6026 44.6698 14.1566L43.6512 13.4418C43.6512 12.8104 43.8091 12.2445 44.1248 11.7441C44.4405 11.2438 44.8634 10.8477 45.3935 10.5558C45.9296 10.2639 46.5283 10.118 47.1895 10.118C47.946 10.118 48.5654 10.2788 49.0479 10.6005C49.5364 10.9221 49.8967 11.351 50.1291 11.8871C50.3614 12.4232 50.4775 13.0129 50.4775 13.6562V20H48.0472ZM61.2891 20.268C60.5981 20.268 60.0114 20.137 59.5289 19.8749C59.0523 19.6069 58.689 19.2524 58.4388 18.8117C58.1946 18.3649 58.0725 17.8735 58.0725 17.3374C58.0725 16.8906 58.141 16.4826 58.278 16.1133C58.415 15.744 58.6354 15.4194 58.9392 15.1394C59.2489 14.8535 59.6629 14.6152 60.1811 14.4246C60.5385 14.2936 60.9644 14.1774 61.4588 14.0761C61.9532 13.9749 62.5131 13.8796 63.1386 13.7902C63.764 13.6949 64.452 13.5907 65.2026 13.4775L64.3269 13.96C64.3269 13.3882 64.1899 12.9682 63.9159 12.7002C63.6419 12.4321 63.1833 12.2981 62.5399 12.2981C62.1826 12.2981 61.8103 12.3845 61.4231 12.5572C61.0359 12.7299 60.7649 13.0367 60.61 13.4775L58.412 12.7806C58.6562 11.9824 59.1149 11.3331 59.788 10.8328C60.4611 10.3324 61.3784 10.0822 62.5399 10.0822C63.3917 10.0822 64.1482 10.2133 64.8094 10.4754C65.4706 10.7375 65.971 11.1902 66.3105 11.8335C66.5011 12.1909 66.6143 12.5483 66.65 12.9057C66.6858 13.2631 66.7036 13.6622 66.7036 14.1029V20H64.5771V18.0164L64.8809 18.4275C64.4103 19.0767 63.901 19.5473 63.353 19.8392C62.811 20.1251 62.123 20.268 61.2891 20.268ZM61.8073 18.356C62.254 18.356 62.6293 18.2785 62.9331 18.1237C63.2428 17.9628 63.4871 17.7812 63.6658 17.5786C63.8504 17.3761 63.9755 17.2063 64.041 17.0693C64.1661 16.8073 64.2376 16.5035 64.2555 16.158C64.2793 15.8065 64.2912 15.5147 64.2912 15.2824L65.006 15.4611C64.2852 15.5802 63.7015 15.6814 63.2547 15.7648C62.808 15.8423 62.4476 15.9138 62.1736 15.9793C61.8996 16.0448 61.6584 16.1163 61.4499 16.1937C61.2116 16.289 61.018 16.3933 60.8691 16.5064C60.7262 16.6137 60.6189 16.7328 60.5475 16.8638C60.4819 16.9949 60.4492 17.1408 60.4492 17.3017C60.4492 17.522 60.5028 17.7127 60.61 17.8735C60.7232 18.0284 60.881 18.1475 61.0836 18.2309C61.2861 18.3143 61.5273 18.356 61.8073 18.356ZM69.0268 20V10.3503H71.1712V12.7091L70.9389 12.4053C71.064 12.0717 71.2308 11.768 71.4393 11.4939C71.6478 11.2199 71.9039 10.9936 72.2077 10.8149C72.44 10.6719 72.6931 10.5617 72.9672 10.4843C73.2412 10.4009 73.5241 10.3503 73.816 10.3324C74.1078 10.3086 74.3997 10.3145 74.6916 10.3503V12.6197C74.4235 12.5364 74.1108 12.5095 73.7534 12.5393C73.402 12.5632 73.0833 12.6436 72.7974 12.7806C72.5115 12.9116 72.2702 13.0873 72.0737 13.3077C71.8771 13.5222 71.7282 13.7783 71.6269 14.0761C71.5257 14.368 71.475 14.6986 71.475 15.0679V20H69.0268ZM82.181 20C81.5139 20.1251 80.8587 20.1787 80.2153 20.1608C79.578 20.1489 79.0061 20.0387 78.4998 19.8302C77.9995 19.6158 77.6183 19.2733 77.3562 18.8027C77.1179 18.3619 76.9928 17.9152 76.9809 17.4625C76.969 17.0038 76.963 16.4856 76.963 15.9078V7.66979H79.3933V15.7648C79.3933 16.1401 79.3963 16.4796 79.4023 16.7834C79.4142 17.0813 79.4767 17.3195 79.5899 17.4982C79.8043 17.8377 80.1468 18.0224 80.6174 18.0522C81.088 18.082 81.6092 18.0581 82.181 17.9807V20ZM75.319 12.2266V10.3503H82.181V12.2266H75.319ZM84.3314 20V7.1337H89.4779C90.3952 7.1337 91.1368 7.31835 91.7027 7.68767C92.2686 8.05102 92.6826 8.50968 92.9447 9.06364C93.2068 9.61761 93.3378 10.1775 93.3378 10.7434C93.3378 11.4642 93.174 12.0628 92.8464 12.5393C92.5247 13.0159 92.081 13.3345 91.5151 13.4954V13.0486C92.3192 13.2154 92.9209 13.5877 93.3199 14.1655C93.725 14.7433 93.9275 15.3896 93.9275 16.1044C93.9275 16.8728 93.7846 17.5489 93.4986 18.1326C93.2187 18.7163 92.7898 19.175 92.212 19.5086C91.6342 19.8362 90.9075 20 90.0319 20H84.3314ZM86.7974 17.7127H89.7817C90.1093 17.7127 90.4012 17.6442 90.6573 17.5072C90.9135 17.3642 91.113 17.1676 91.256 16.9174C91.4049 16.6613 91.4794 16.3605 91.4794 16.015C91.4794 15.7112 91.4168 15.4402 91.2917 15.2019C91.1666 14.9637 90.976 14.776 90.7199 14.639C90.4697 14.4961 90.157 14.4246 89.7817 14.4246H86.7974V17.7127ZM86.7974 12.1551H89.4422C89.7162 12.1551 89.9604 12.1075 90.1749 12.0122C90.3893 11.9169 90.5591 11.7709 90.6841 11.5744C90.8092 11.3718 90.8718 11.1127 90.8718 10.797C90.8718 10.4039 90.7497 10.0733 90.5054 9.80524C90.2612 9.5372 89.9068 9.40317 89.4422 9.40317H86.7974V12.1551ZM95.8882 9.01003V6.86565H98.3185V9.01003H95.8882ZM95.8882 20V10.3503H98.3185V20H95.8882ZM100.104 20V19.6962L104.839 12.4589H100.64V10.3503H108.592V10.6541L103.874 17.8914H108.413V20H100.104Z"/>
</mask>
<path d="M35.1112 20.268C34.1582 20.268 33.2975 20.1013 32.5291 19.7677C31.7666 19.4282 31.1382 18.9457 30.6438 18.3202C30.1553 17.6888 29.8456 16.9383 29.7146 16.0686L32.2521 15.6934C32.4308 16.432 32.8001 17.0008 33.36 17.3999C33.9199 17.799 34.5573 17.9986 35.2721 17.9986C35.6712 17.9986 36.0584 17.936 36.4336 17.8109C36.8089 17.6859 37.1157 17.5012 37.3539 17.257C37.5981 17.0128 37.7202 16.7119 37.7202 16.3545C37.7202 16.2235 37.6994 16.0984 37.6577 15.9793C37.622 15.8542 37.5594 15.738 37.4701 15.6308C37.3807 15.5236 37.2527 15.4223 37.0859 15.327C36.925 15.2317 36.7195 15.1454 36.4694 15.0679L33.1277 14.0851C32.8775 14.0136 32.5856 13.9123 32.2521 13.7813C31.9245 13.6502 31.6058 13.4626 31.296 13.2184C30.9863 12.9742 30.7272 12.6525 30.5187 12.2534C30.3162 11.8484 30.2149 11.3391 30.2149 10.7255C30.2149 9.86183 30.4323 9.14406 30.8672 8.57222C31.302 8.00039 31.8828 7.57449 32.6095 7.29453C33.3362 7.01457 34.1403 6.87756 35.0219 6.88352C35.9094 6.89543 36.7017 7.04733 37.3986 7.3392C38.0955 7.63108 38.6793 8.05698 39.1498 8.6169C39.6204 9.17086 39.9599 9.84992 40.1684 10.6541L37.5415 11.1008C37.4462 10.6838 37.2705 10.3324 37.0144 10.0465C36.7583 9.76057 36.4515 9.54315 36.0941 9.39424C35.7427 9.24532 35.3733 9.16491 34.9862 9.15299C34.6049 9.14108 34.2446 9.19469 33.905 9.31382C33.5715 9.427 33.2975 9.59378 33.083 9.81418C32.8745 10.0346 32.7703 10.2967 32.7703 10.6005C32.7703 10.8804 32.8567 11.1097 33.0294 11.2884C33.2022 11.4612 33.4196 11.6012 33.6817 11.7084C33.9438 11.8156 34.2118 11.905 34.4858 11.9764L36.7195 12.584C37.0531 12.6734 37.4224 12.7925 37.8275 12.9414C38.2325 13.0844 38.6197 13.2869 38.989 13.549C39.3643 13.8051 39.671 14.1446 39.9093 14.5676C40.1535 14.9905 40.2756 15.5266 40.2756 16.1758C40.2756 16.8668 40.1297 17.4714 39.8378 17.9896C39.5519 18.5019 39.1647 18.9278 38.6763 19.2673C38.1878 19.6009 37.6339 19.8511 37.0144 20.0179C36.4009 20.1847 35.7665 20.268 35.1112 20.268ZM53.8549 20V14.2995C53.8549 13.6622 53.703 13.1678 53.3992 12.8163C53.1014 12.4589 52.6874 12.2802 52.1573 12.2802C51.8178 12.2802 51.5229 12.3606 51.2727 12.5215C51.0225 12.6763 50.826 12.8967 50.683 13.1826C50.546 13.4626 50.4775 13.7872 50.4775 14.1566L49.4589 13.4775C49.4589 12.8163 49.6138 12.2326 49.9235 11.7263C50.2393 11.2199 50.6592 10.8268 51.1834 10.5468C51.7135 10.2609 52.3002 10.118 52.9436 10.118C54.0455 10.118 54.8765 10.4456 55.4364 11.1008C56.0023 11.7501 56.2852 12.6019 56.2852 13.6562V20H53.8549ZM42.2216 20V10.3503H44.366V13.549H44.6698V20H42.2216ZM48.0472 20V14.2995C48.0472 13.6622 47.8953 13.1678 47.5915 12.8163C47.2937 12.4589 46.8797 12.2802 46.3496 12.2802C45.8433 12.2802 45.4352 12.4559 45.1255 12.8074C44.8217 13.1529 44.6698 13.6026 44.6698 14.1566L43.6512 13.4418C43.6512 12.8104 43.8091 12.2445 44.1248 11.7441C44.4405 11.2438 44.8634 10.8477 45.3935 10.5558C45.9296 10.2639 46.5283 10.118 47.1895 10.118C47.946 10.118 48.5654 10.2788 49.0479 10.6005C49.5364 10.9221 49.8967 11.351 50.1291 11.8871C50.3614 12.4232 50.4775 13.0129 50.4775 13.6562V20H48.0472ZM61.2891 20.268C60.5981 20.268 60.0114 20.137 59.5289 19.8749C59.0523 19.6069 58.689 19.2524 58.4388 18.8117C58.1946 18.3649 58.0725 17.8735 58.0725 17.3374C58.0725 16.8906 58.141 16.4826 58.278 16.1133C58.415 15.744 58.6354 15.4194 58.9392 15.1394C59.2489 14.8535 59.6629 14.6152 60.1811 14.4246C60.5385 14.2936 60.9644 14.1774 61.4588 14.0761C61.9532 13.9749 62.5131 13.8796 63.1386 13.7902C63.764 13.6949 64.452 13.5907 65.2026 13.4775L64.3269 13.96C64.3269 13.3882 64.1899 12.9682 63.9159 12.7002C63.6419 12.4321 63.1833 12.2981 62.5399 12.2981C62.1826 12.2981 61.8103 12.3845 61.4231 12.5572C61.0359 12.7299 60.7649 13.0367 60.61 13.4775L58.412 12.7806C58.6562 11.9824 59.1149 11.3331 59.788 10.8328C60.4611 10.3324 61.3784 10.0822 62.5399 10.0822C63.3917 10.0822 64.1482 10.2133 64.8094 10.4754C65.4706 10.7375 65.971 11.1902 66.3105 11.8335C66.5011 12.1909 66.6143 12.5483 66.65 12.9057C66.6858 13.2631 66.7036 13.6622 66.7036 14.1029V20H64.5771V18.0164L64.8809 18.4275C64.4103 19.0767 63.901 19.5473 63.353 19.8392C62.811 20.1251 62.123 20.268 61.2891 20.268ZM61.8073 18.356C62.254 18.356 62.6293 18.2785 62.9331 18.1237C63.2428 17.9628 63.4871 17.7812 63.6658 17.5786C63.8504 17.3761 63.9755 17.2063 64.041 17.0693C64.1661 16.8073 64.2376 16.5035 64.2555 16.158C64.2793 15.8065 64.2912 15.5147 64.2912 15.2824L65.006 15.4611C64.2852 15.5802 63.7015 15.6814 63.2547 15.7648C62.808 15.8423 62.4476 15.9138 62.1736 15.9793C61.8996 16.0448 61.6584 16.1163 61.4499 16.1937C61.2116 16.289 61.018 16.3933 60.8691 16.5064C60.7262 16.6137 60.6189 16.7328 60.5475 16.8638C60.4819 16.9949 60.4492 17.1408 60.4492 17.3017C60.4492 17.522 60.5028 17.7127 60.61 17.8735C60.7232 18.0284 60.881 18.1475 61.0836 18.2309C61.2861 18.3143 61.5273 18.356 61.8073 18.356ZM69.0268 20V10.3503H71.1712V12.7091L70.9389 12.4053C71.064 12.0717 71.2308 11.768 71.4393 11.4939C71.6478 11.2199 71.9039 10.9936 72.2077 10.8149C72.44 10.6719 72.6931 10.5617 72.9672 10.4843C73.2412 10.4009 73.5241 10.3503 73.816 10.3324C74.1078 10.3086 74.3997 10.3145 74.6916 10.3503V12.6197C74.4235 12.5364 74.1108 12.5095 73.7534 12.5393C73.402 12.5632 73.0833 12.6436 72.7974 12.7806C72.5115 12.9116 72.2702 13.0873 72.0737 13.3077C71.8771 13.5222 71.7282 13.7783 71.6269 14.0761C71.5257 14.368 71.475 14.6986 71.475 15.0679V20H69.0268ZM82.181 20C81.5139 20.1251 80.8587 20.1787 80.2153 20.1608C79.578 20.1489 79.0061 20.0387 78.4998 19.8302C77.9995 19.6158 77.6183 19.2733 77.3562 18.8027C77.1179 18.3619 76.9928 17.9152 76.9809 17.4625C76.969 17.0038 76.963 16.4856 76.963 15.9078V7.66979H79.3933V15.7648C79.3933 16.1401 79.3963 16.4796 79.4023 16.7834C79.4142 17.0813 79.4767 17.3195 79.5899 17.4982C79.8043 17.8377 80.1468 18.0224 80.6174 18.0522C81.088 18.082 81.6092 18.0581 82.181 17.9807V20ZM75.319 12.2266V10.3503H82.181V12.2266H75.319ZM84.3314 20V7.1337H89.4779C90.3952 7.1337 91.1368 7.31835 91.7027 7.68767C92.2686 8.05102 92.6826 8.50968 92.9447 9.06364C93.2068 9.61761 93.3378 10.1775 93.3378 10.7434C93.3378 11.4642 93.174 12.0628 92.8464 12.5393C92.5247 13.0159 92.081 13.3345 91.5151 13.4954V13.0486C92.3192 13.2154 92.9209 13.5877 93.3199 14.1655C93.725 14.7433 93.9275 15.3896 93.9275 16.1044C93.9275 16.8728 93.7846 17.5489 93.4986 18.1326C93.2187 18.7163 92.7898 19.175 92.212 19.5086C91.6342 19.8362 90.9075 20 90.0319 20H84.3314ZM86.7974 17.7127H89.7817C90.1093 17.7127 90.4012 17.6442 90.6573 17.5072C90.9135 17.3642 91.113 17.1676 91.256 16.9174C91.4049 16.6613 91.4794 16.3605 91.4794 16.015C91.4794 15.7112 91.4168 15.4402 91.2917 15.2019C91.1666 14.9637 90.976 14.776 90.7199 14.639C90.4697 14.4961 90.157 14.4246 89.7817 14.4246H86.7974V17.7127ZM86.7974 12.1551H89.4422C89.7162 12.1551 89.9604 12.1075 90.1749 12.0122C90.3893 11.9169 90.5591 11.7709 90.6841 11.5744C90.8092 11.3718 90.8718 11.1127 90.8718 10.797C90.8718 10.4039 90.7497 10.0733 90.5054 9.80524C90.2612 9.5372 89.9068 9.40317 89.4422 9.40317H86.7974V12.1551ZM95.8882 9.01003V6.86565H98.3185V9.01003H95.8882ZM95.8882 20V10.3503H98.3185V20H95.8882ZM100.104 20V19.6962L104.839 12.4589H100.64V10.3503H108.592V10.6541L103.874 17.8914H108.413V20H100.104Z" fill="#2E343F"/>
<path d="M32.5291 19.7677L32.1222 20.6812L32.1308 20.685L32.5291 19.7677ZM30.6438 18.3202L29.8528 18.9321L29.8593 18.9404L30.6438 18.3202ZM29.7146 16.0686L29.5683 15.0794L28.5763 15.2261L28.7257 16.2176L29.7146 16.0686ZM32.2521 15.6934L33.224 15.4582L33.0093 14.5705L32.1058 14.7041L32.2521 15.6934ZM33.36 17.3999L33.9404 16.5856L33.9404 16.5856L33.36 17.3999ZM36.4336 17.8109L36.1174 16.8623L36.1174 16.8623L36.4336 17.8109ZM37.3539 17.257L36.6468 16.5498L36.6381 16.5587L37.3539 17.257ZM37.6577 15.9793L36.6962 16.254L36.7042 16.2821L36.7138 16.3096L37.6577 15.9793ZM37.4701 15.6308L38.2383 14.9906L38.2383 14.9906L37.4701 15.6308ZM37.0859 15.327L36.5761 16.1873L36.5829 16.1914L36.5897 16.1953L37.0859 15.327ZM36.4694 15.0679L36.7651 14.1125L36.7515 14.1086L36.4694 15.0679ZM33.1277 14.0851L33.4099 13.1257L33.4024 13.1236L33.1277 14.0851ZM32.2521 13.7813L31.8807 14.7098L31.8864 14.712L32.2521 13.7813ZM31.296 13.2184L31.9152 12.4331L31.9152 12.4331L31.296 13.2184ZM30.5187 12.2534L29.6243 12.7006L29.6282 12.7086L29.6323 12.7164L30.5187 12.2534ZM30.8672 8.57222L31.6632 9.17752L31.6632 9.17752L30.8672 8.57222ZM32.6095 7.29453L32.969 8.22768L32.969 8.22768L32.6095 7.29453ZM35.0219 6.88352L35.0353 5.88359L35.0287 5.88354L35.0219 6.88352ZM37.3986 7.3392L37.7849 6.41683L37.7849 6.41683L37.3986 7.3392ZM39.1498 8.6169L38.3843 9.26029L38.3877 9.26431L39.1498 8.6169ZM40.1684 10.6541L40.3361 11.6399L41.4097 11.4573L41.1364 10.4031L40.1684 10.6541ZM37.5415 11.1008L36.5667 11.3236L36.7773 12.2451L37.7092 12.0867L37.5415 11.1008ZM37.0144 10.0465L36.2696 10.7137L36.2696 10.7137L37.0144 10.0465ZM36.0941 9.39424L35.7039 10.315L35.7095 10.3173L36.0941 9.39424ZM34.9862 9.15299L34.9549 10.1525L34.9554 10.1525L34.9862 9.15299ZM33.905 9.31382L34.2263 10.2609L34.2361 10.2574L33.905 9.31382ZM33.083 9.81418L32.3662 9.11675L32.3566 9.12698L33.083 9.81418ZM33.0294 11.2884L32.3104 11.9835L32.3163 11.9896L32.3223 11.9955L33.0294 11.2884ZM33.6817 11.7084L34.0603 10.7828L34.0603 10.7828L33.6817 11.7084ZM34.4858 11.9764L34.7483 11.0114L34.7382 11.0088L34.4858 11.9764ZM36.7195 12.584L36.4571 13.549L36.4608 13.55L36.7195 12.584ZM37.8275 12.9414L37.4824 13.8801L37.4946 13.8844L37.8275 12.9414ZM38.989 13.549L38.4103 14.3645L38.4177 14.3698L38.4253 14.3749L38.989 13.549ZM39.9093 14.5676L39.038 15.0584L39.0433 15.0676L39.9093 14.5676ZM39.8378 17.9896L38.9665 17.4989L38.9646 17.5023L39.8378 17.9896ZM38.6763 19.2673L39.2403 20.0932L39.2471 20.0884L38.6763 19.2673ZM37.0144 20.0179L36.7544 19.0523L36.7521 19.0529L37.0144 20.0179ZM35.1112 19.268C34.2764 19.268 33.5538 19.1224 32.9273 18.8504L32.1308 20.685C33.0411 21.0801 34.04 21.268 35.1112 21.268V19.268ZM32.9359 18.8542C32.314 18.5773 31.8176 18.1926 31.4283 17.7001L29.8593 18.9404C30.4587 19.6987 31.2192 20.2791 32.1223 20.6812L32.9359 18.8542ZM31.4347 17.7084C31.061 17.2252 30.8117 16.6382 30.7034 15.9196L28.7257 16.2176C28.8795 17.2384 29.2497 18.1524 29.8528 18.9321L31.4347 17.7084ZM29.8608 17.0579L32.3984 16.6826L32.1058 14.7041L29.5683 15.0794L29.8608 17.0579ZM31.2801 15.9285C31.509 16.8746 32.0027 17.6605 32.7796 18.2143L33.9404 16.5856C33.5975 16.3412 33.3525 15.9894 33.224 15.4582L31.2801 15.9285ZM32.7796 18.2143C33.516 18.7391 34.358 18.9986 35.2721 18.9986V16.9986C34.7566 16.9986 34.3239 16.8589 33.9404 16.5856L32.7796 18.2143ZM35.2721 18.9986C35.7777 18.9986 36.2717 18.919 36.7498 18.7596L36.1174 16.8623C35.845 16.9531 35.5647 16.9986 35.2721 16.9986V18.9986ZM36.7498 18.7596C37.2522 18.5922 37.7036 18.3306 38.0697 17.9553L36.6381 16.5587C36.5277 16.6718 36.3656 16.7795 36.1174 16.8623L36.7498 18.7596ZM38.061 17.9641C38.4999 17.5252 38.7202 16.9669 38.7202 16.3545H36.7202C36.7202 16.457 36.6963 16.5003 36.6468 16.5499L38.061 17.9641ZM38.7202 16.3545C38.7202 16.1154 38.6818 15.8783 38.6016 15.6489L36.7138 16.3096C36.717 16.3186 36.7202 16.3316 36.7202 16.3545H38.7202ZM38.6192 15.7046C38.5425 15.436 38.4102 15.197 38.2383 14.9906L36.7018 16.271C36.7061 16.2761 36.7058 16.2767 36.7035 16.2724C36.7012 16.2681 36.6984 16.2616 36.6962 16.254L38.6192 15.7046ZM38.2383 14.9906C38.0498 14.7644 37.8161 14.5926 37.582 14.4588L36.5897 16.1953C36.6371 16.2223 36.6681 16.2441 36.6868 16.2589C36.7055 16.2737 36.7081 16.2785 36.7019 16.271L38.2383 14.9906ZM37.5957 14.4667C37.3466 14.3191 37.0627 14.2048 36.765 14.1126L36.1737 16.0232C36.3764 16.0859 36.5035 16.1443 36.5761 16.1873L37.5957 14.4667ZM36.7515 14.1086L33.4099 13.1257L32.8455 15.0444L36.1872 16.0273L36.7515 14.1086ZM33.4024 13.1236C33.192 13.0634 32.9317 12.9739 32.6177 12.8505L31.8864 14.712C32.2396 14.8508 32.563 14.9637 32.853 15.0466L33.4024 13.1236ZM32.6235 12.8528C32.3947 12.7613 32.1584 12.6249 31.9152 12.4331L30.6769 14.0037C31.0532 14.3003 31.4543 14.5392 31.8807 14.7098L32.6235 12.8528ZM31.9152 12.4331C31.7309 12.2878 31.5574 12.0821 31.405 11.7904L29.6323 12.7164C29.8969 13.2229 30.2417 13.6605 30.6769 14.0037L31.9152 12.4331ZM31.4131 11.8062C31.3002 11.5803 31.2149 11.2362 31.2149 10.7255H29.2149C29.2149 11.442 29.3322 12.1164 29.6243 12.7006L31.4131 11.8062ZM31.2149 10.7255C31.2149 10.0349 31.3858 9.54225 31.6632 9.17752L30.0712 7.96693C29.4788 8.74587 29.2149 9.68873 29.2149 10.7255H31.2149ZM31.6632 9.17752C31.9763 8.76571 32.4002 8.44677 32.969 8.22768L32.25 6.36138C31.3653 6.70221 30.6277 7.23507 30.0712 7.96693L31.6632 9.17752ZM32.969 8.22768C33.5644 7.99827 34.2423 7.87828 35.0151 7.8835L35.0287 5.88354C34.0383 5.87685 33.1079 6.03087 32.25 6.36138L32.969 8.22768ZM35.0085 7.88343C35.7899 7.89392 36.4523 8.02704 37.0123 8.26158L37.7849 6.41683C36.951 6.06761 36.029 5.89695 35.0353 5.88361L35.0085 7.88343ZM37.0123 8.26158C37.5674 8.49407 38.0196 8.82632 38.3843 9.26028L39.9154 7.97351C39.339 7.28764 38.6236 6.76809 37.7849 6.41683L37.0123 8.26158ZM38.3877 9.26431C38.7476 9.68794 39.0244 10.226 39.2004 10.905L41.1364 10.4031C40.8955 9.47388 40.4933 8.65379 39.912 7.96949L38.3877 9.26431ZM40.0008 9.66822L37.3739 10.115L37.7092 12.0867L40.3361 11.6399L40.0008 9.66822ZM38.5164 10.878C38.3877 10.315 38.1409 9.80534 37.7592 9.37924L36.2696 10.7137C36.4001 10.8595 36.5048 11.0527 36.5667 11.3236L38.5164 10.878ZM37.7592 9.37924C37.4027 8.98126 36.9725 8.67691 36.4787 8.47116L35.7095 10.3173C35.9305 10.4094 36.1138 10.5399 36.2696 10.7137L37.7592 9.37924ZM36.4842 8.47348C36.0172 8.27558 35.5259 8.16913 35.0169 8.15347L34.9554 10.1525C35.2208 10.1607 35.4681 10.2151 35.7039 10.315L36.4842 8.47348ZM35.0174 8.15348C34.5205 8.13795 34.0366 8.20788 33.5739 8.37022L34.2361 10.2574C34.4525 10.1815 34.6894 10.1442 34.9549 10.1525L35.0174 8.15348ZM33.5837 8.36684C33.1224 8.52338 32.706 8.76765 32.3663 9.11682L33.7997 10.5115C33.8889 10.4199 34.0205 10.3306 34.2263 10.2608L33.5837 8.36684ZM32.3566 9.12698C31.9722 9.53334 31.7703 10.0414 31.7703 10.6005H33.7703C33.7703 10.5653 33.7758 10.5503 33.7777 10.5456C33.7795 10.541 33.7857 10.5265 33.8095 10.5014L32.3566 9.12698ZM31.7703 10.6005C31.7703 11.1042 31.9341 11.5942 32.3104 11.9835L33.7484 10.5934C33.7509 10.596 33.7553 10.6012 33.7602 10.6088C33.7651 10.6166 33.7687 10.624 33.7709 10.63C33.7731 10.6358 33.7731 10.6376 33.7724 10.6337C33.7717 10.6297 33.7703 10.619 33.7703 10.6005H31.7703ZM32.3223 11.9955C32.6027 12.2759 32.9374 12.4843 33.303 12.6339L34.0603 10.7828C33.9018 10.718 33.8016 10.6464 33.7365 10.5813L32.3223 11.9955ZM33.303 12.6339C33.6062 12.758 33.9164 12.8614 34.2334 12.944L34.7382 11.0088C34.5072 10.9485 34.2813 10.8732 34.0603 10.7828L33.303 12.6339ZM34.2233 12.9414L36.4571 13.5489L36.982 11.6191L34.7483 11.0115L34.2233 12.9414ZM36.4608 13.55C36.7591 13.6298 37.099 13.739 37.4824 13.88L38.1725 12.0028C37.7458 11.8459 37.3471 11.7169 36.9783 11.6181L36.4608 13.55ZM37.4946 13.8844C37.8076 13.9948 38.1125 14.1532 38.4103 14.3645L39.5678 12.7335C39.1269 12.4206 38.6575 12.1739 38.1603 11.9984L37.4946 13.8844ZM38.4253 14.3749C38.6651 14.5386 38.8699 14.76 39.0381 15.0584L40.7806 14.0767C40.4722 13.5293 40.0635 13.0716 39.5528 12.723L38.4253 14.3749ZM39.0433 15.0676C39.1755 15.2964 39.2756 15.6462 39.2756 16.1758H41.2756C41.2756 15.407 41.1316 14.6845 40.7753 14.0675L39.0433 15.0676ZM39.2756 16.1758C39.2756 16.7229 39.1613 17.1532 38.9665 17.4989L40.7091 18.4804C41.0982 17.7897 41.2756 17.0107 41.2756 16.1758H39.2756ZM38.9646 17.5023C38.7539 17.8798 38.4709 18.1922 38.1055 18.4462L39.2471 20.0884C39.8586 19.6634 40.3499 19.124 40.711 18.477L38.9646 17.5023ZM38.1123 18.4415C37.7242 18.7066 37.2746 18.9122 36.7544 19.0523L37.2744 20.9835C37.9931 20.79 38.6515 20.4952 39.2402 20.0931L38.1123 18.4415ZM36.7521 19.0529C36.2266 19.1957 35.6806 19.268 35.1112 19.268V21.268C35.8524 21.268 36.5751 21.1736 37.2767 20.9828L36.7521 19.0529ZM53.8549 20H52.8549V21H53.8549V20ZM53.3992 12.8163L52.631 13.4565L52.6368 13.4634L52.6427 13.4703L53.3992 12.8163ZM51.2727 12.5215L51.7991 13.3717L51.8063 13.3672L51.8135 13.3626L51.2727 12.5215ZM50.683 13.1826L49.7886 12.7354L49.7848 12.7431L50.683 13.1826ZM50.4775 14.1566L49.9228 14.9886L51.4775 16.0251V14.1566H50.4775ZM49.4589 13.4775H48.4589V14.0127L48.9042 14.3096L49.4589 13.4775ZM49.9235 11.7263L49.075 11.1971L49.0705 11.2044L49.9235 11.7263ZM51.1834 10.5468L51.6545 11.4289L51.6581 11.427L51.1834 10.5468ZM55.4364 11.1008L54.6761 11.7505L54.6825 11.7578L55.4364 11.1008ZM56.2852 20V21H57.2852V20H56.2852ZM42.2216 20H41.2216V21H42.2216V20ZM42.2216 10.3503V9.35027H41.2216V10.3503H42.2216ZM44.366 10.3503H45.366V9.35027H44.366V10.3503ZM44.366 13.549H43.366V14.549H44.366V13.549ZM44.6698 13.549H45.6698V12.549H44.6698V13.549ZM44.6698 20V21H45.6698V20H44.6698ZM48.0472 20H47.0472V21H48.0472V20ZM47.5915 12.8163L46.8233 13.4565L46.8291 13.4634L46.835 13.4703L47.5915 12.8163ZM45.1255 12.8074L44.3753 12.1462L44.3745 12.147L45.1255 12.8074ZM44.6698 14.1566L44.0954 14.9751L45.6698 16.08V14.1566H44.6698ZM43.6512 13.4418H42.6512V13.9617L43.0768 14.2603L43.6512 13.4418ZM45.3935 10.5558L44.9154 9.6775L44.9112 9.67977L45.3935 10.5558ZM49.0479 10.6005L48.4932 11.4325L48.4979 11.4356L49.0479 10.6005ZM50.1291 11.8871L49.2115 12.2847L49.2115 12.2847L50.1291 11.8871ZM50.4775 20V21H51.4775V20H50.4775ZM54.8549 20V14.2995H52.8549V20H54.8549ZM54.8549 14.2995C54.8549 13.5114 54.6666 12.7533 54.1558 12.1624L52.6427 13.4703C52.7395 13.5822 52.8549 13.8129 52.8549 14.2995H54.8549ZM54.1675 12.1761C53.6518 11.5573 52.9378 11.2802 52.1573 11.2802V13.2802C52.4371 13.2802 52.551 13.3605 52.631 13.4565L54.1675 12.1761ZM52.1573 11.2802C51.6539 11.2802 51.1654 11.4017 50.732 11.6803L51.8135 13.3626C51.8804 13.3196 51.9816 13.2802 52.1573 13.2802V11.2802ZM50.7464 11.6712C50.3249 11.9321 50.0071 12.2985 49.7886 12.7354L51.5774 13.6299C51.6449 13.495 51.7202 13.4206 51.7991 13.3717L50.7464 11.6712ZM49.7848 12.7431C49.5695 13.183 49.4775 13.6628 49.4775 14.1566H51.4775C51.4775 13.9117 51.5225 13.7422 51.5812 13.6222L49.7848 12.7431ZM51.0322 13.3245L50.0136 12.6455L48.9042 14.3096L49.9228 14.9886L51.0322 13.3245ZM50.4589 13.4775C50.4589 12.9789 50.5736 12.5799 50.7766 12.2481L49.0705 11.2044C48.654 11.8853 48.4589 12.6537 48.4589 13.4775H50.4589ZM50.7721 12.2554C50.9955 11.8971 51.2855 11.626 51.6545 11.4289L50.7123 9.66477C50.0329 10.0276 49.483 10.5428 49.075 11.1972L50.7721 12.2554ZM51.6581 11.427C52.0325 11.2251 52.4543 11.118 52.9436 11.118V9.11797C52.1461 9.11797 51.3946 9.29677 50.7087 9.66669L51.6581 11.427ZM52.9436 11.118C53.8407 11.118 54.3566 11.3765 54.6762 11.7505L56.1966 10.4512C55.3963 9.51465 54.2504 9.11797 52.9436 9.11797V11.118ZM54.6825 11.7578C55.0562 12.1866 55.2852 12.787 55.2852 13.6562H57.2852C57.2852 12.4168 56.9484 11.3136 56.1903 10.4438L54.6825 11.7578ZM55.2852 13.6562V20H57.2852V13.6562H55.2852ZM56.2852 19H53.8549V21H56.2852V19ZM43.2216 20V10.3503H41.2216V20H43.2216ZM42.2216 11.3503H44.366V9.35027H42.2216V11.3503ZM43.366 10.3503V13.549H45.366V10.3503H43.366ZM44.366 14.549H44.6698V12.549H44.366V14.549ZM43.6698 13.549V20H45.6698V13.549H43.6698ZM44.6698 19H42.2216V21H44.6698V19ZM49.0472 20V14.2995H47.0472V20H49.0472ZM49.0472 14.2995C49.0472 13.5114 48.8589 12.7533 48.3481 12.1624L46.835 13.4703C46.9318 13.5822 47.0472 13.8129 47.0472 14.2995H49.0472ZM48.3598 12.1761C47.8441 11.5573 47.1301 11.2802 46.3496 11.2802V13.2802C46.6294 13.2802 46.7433 13.3605 46.8233 13.4565L48.3598 12.1761ZM46.3496 11.2802C45.5823 11.2802 44.8915 11.5605 44.3753 12.1462L45.8757 13.4686C45.979 13.3514 46.1042 13.2802 46.3496 13.2802V11.2802ZM44.3745 12.147C43.8789 12.7107 43.6698 13.4116 43.6698 14.1566H45.6698C45.6698 13.7936 45.7645 13.595 45.8765 13.4677L44.3745 12.147ZM45.2442 13.338L44.2257 12.6232L43.0768 14.2603L44.0954 14.9751L45.2442 13.338ZM44.6512 13.4418C44.6512 12.986 44.7624 12.6075 44.9705 12.2777L43.2791 11.2105C42.8557 11.8815 42.6512 12.6347 42.6512 13.4418H44.6512ZM44.9705 12.2777C45.1938 11.9238 45.4903 11.644 45.8758 11.4318L44.9112 9.67977C44.2365 10.0513 43.6871 10.5637 43.2791 11.2105L44.9705 12.2777ZM45.8717 11.434C46.249 11.2286 46.6811 11.118 47.1895 11.118V9.11797C46.3755 9.11797 45.6102 9.2992 44.9154 9.67751L45.8717 11.434ZM47.1895 11.118C47.8079 11.118 48.2183 11.2492 48.4932 11.4325L49.6026 9.7684C48.9126 9.30838 48.084 9.11797 47.1895 9.11797V11.118ZM48.4979 11.4356C48.8241 11.6504 49.0566 11.9273 49.2115 12.2847L51.0466 11.4895C50.7369 10.7747 50.2487 10.1938 49.5979 9.76528L48.4979 11.4356ZM49.2115 12.2847C49.3842 12.6831 49.4775 13.1358 49.4775 13.6562H51.4775C51.4775 12.89 51.3386 12.1632 51.0466 11.4895L49.2115 12.2847ZM49.4775 13.6562V20H51.4775V13.6562H49.4775ZM50.4775 19H48.0472V21H50.4775V19ZM59.5289 19.8749L59.0386 20.7465L59.0451 20.7501L59.0515 20.7536L59.5289 19.8749ZM58.4388 18.8117L57.5614 19.2913L57.5652 19.2983L57.5691 19.3053L58.4388 18.8117ZM58.278 16.1133L57.3404 15.7655L57.3404 15.7655L58.278 16.1133ZM58.9392 15.1394L59.6169 15.8748L59.6175 15.8742L58.9392 15.1394ZM60.1811 14.4246L59.8369 13.4857L59.8359 13.4861L60.1811 14.4246ZM61.4588 14.0761L61.2582 13.0965L61.2582 13.0965L61.4588 14.0761ZM63.1386 13.7902L63.28 14.7802L63.2892 14.7788L63.1386 13.7902ZM65.2026 13.4775L65.6852 14.3533L65.0535 12.4887L65.2026 13.4775ZM64.3269 13.96H63.3269V15.6528L64.8095 14.8358L64.3269 13.96ZM61.4231 12.5572L61.0156 11.644L61.0156 11.644L61.4231 12.5572ZM60.61 13.4775L60.3078 14.4307L61.232 14.7238L61.5535 13.809L60.61 13.4775ZM58.412 12.7806L57.4558 12.488L57.1661 13.4346L58.1098 13.7338L58.412 12.7806ZM64.8094 10.4754L65.1779 9.54574L65.1779 9.54574L64.8094 10.4754ZM66.3105 11.8335L65.4261 12.3002L65.4281 12.3041L66.3105 11.8335ZM66.65 12.9057L67.6451 12.8062L67.6451 12.8062L66.65 12.9057ZM66.7036 20V21H67.7036V20H66.7036ZM64.5771 20H63.5771V21H64.5771V20ZM64.5771 18.0164L65.3813 17.4221L63.5771 14.9811V18.0164H64.5771ZM64.8809 18.4275L65.6906 19.0143L66.1201 18.4217L65.6851 17.8331L64.8809 18.4275ZM63.353 19.8392L63.8196 20.7237L63.8231 20.7218L63.353 19.8392ZM62.9331 18.1237L63.3873 19.0146L63.3939 19.0112L62.9331 18.1237ZM63.6658 17.5786L62.9268 16.9049L62.9213 16.9109L62.9159 16.917L63.6658 17.5786ZM64.041 17.0693L64.9432 17.5008L64.9435 17.5001L64.041 17.0693ZM64.2555 16.158L63.2577 16.0903L63.2572 16.0983L63.2568 16.1063L64.2555 16.158ZM64.2912 15.2824L64.5337 14.3122L63.2912 14.0016V15.2824H64.2912ZM65.006 15.4611L65.1691 16.4477L65.2485 14.4909L65.006 15.4611ZM63.2547 15.7648L63.4255 16.7502L63.4382 16.7479L63.2547 15.7648ZM61.4499 16.1937L61.1017 15.2563L61.09 15.2606L61.0785 15.2652L61.4499 16.1937ZM60.8691 16.5064L61.4691 17.3065L61.4742 17.3026L60.8691 16.5064ZM60.5475 16.8638L59.6696 16.385L59.661 16.4007L59.653 16.4166L60.5475 16.8638ZM60.61 17.8735L59.778 18.4282L59.7899 18.4461L59.8026 18.4635L60.61 17.8735ZM61.2891 19.268C60.7226 19.268 60.3091 19.1607 60.0062 18.9962L59.0515 20.7536C59.7137 21.1133 60.4736 21.268 61.2891 21.268V19.268ZM60.0191 19.0033C59.6882 18.8172 59.4619 18.5883 59.3085 18.318L57.5691 19.3053C57.9161 19.9166 58.4165 20.3966 59.0386 20.7465L60.0191 19.0033ZM59.3163 18.332C59.1567 18.0402 59.0725 17.715 59.0725 17.3374H57.0725C57.0725 18.0319 57.2324 18.6896 57.5614 19.2913L59.3163 18.332ZM59.0725 17.3374C59.0725 16.9936 59.125 16.7052 59.2156 16.4611L57.3404 15.7655C57.157 16.26 57.0725 16.7877 57.0725 17.3374H59.0725ZM59.2156 16.4611C59.295 16.2469 59.4232 16.0532 59.6169 15.8748L58.2615 14.404C57.8476 14.7855 57.535 15.2411 57.3404 15.7655L59.2156 16.4611ZM59.6175 15.8742C59.8058 15.7004 60.0951 15.5217 60.5263 15.3631L59.8359 13.4861C59.2307 13.7087 58.6921 14.0066 58.2609 14.4046L59.6175 15.8742ZM60.5254 15.3635C60.8238 15.2541 61.1992 15.1501 61.6595 15.0558L61.2582 13.0965C60.7296 13.2047 60.2533 13.333 59.8369 13.4857L60.5254 15.3635ZM61.6595 15.0558C62.1301 14.9594 62.6697 14.8674 63.28 14.7802L62.9972 12.8003C62.3566 12.8918 61.7764 12.9903 61.2582 13.0965L61.6595 15.0558ZM63.2892 14.7788C63.9141 14.6836 64.6015 14.5794 65.3517 14.4663L65.0535 12.4887C64.3025 12.6019 63.614 12.7062 62.9879 12.8016L63.2892 14.7788ZM64.72 12.6017L63.8443 13.0841L64.8095 14.8358L65.6852 14.3533L64.72 12.6017ZM65.3269 13.96C65.3269 13.2506 65.1587 12.517 64.6152 11.9853L63.2166 13.415C63.2212 13.4195 63.3269 13.5257 63.3269 13.96H65.3269ZM64.6152 11.9853C64.062 11.4441 63.2781 11.2981 62.5399 11.2981V13.2981C62.7972 13.2981 62.973 13.3255 63.086 13.3585C63.1959 13.3906 63.2225 13.4207 63.2166 13.415L64.6152 11.9853ZM62.5399 11.2981C62.0185 11.2981 61.5075 11.4245 61.0156 11.644L61.8305 13.4704C62.113 13.3444 62.3466 13.2981 62.5399 13.2981V11.2981ZM61.0156 11.644C60.3504 11.9408 59.9022 12.4752 59.6665 13.146L61.5535 13.809C61.6275 13.5982 61.7214 13.5191 61.8305 13.4704L61.0156 11.644ZM60.9122 12.5243L58.7143 11.8273L58.1098 13.7338L60.3078 14.4307L60.9122 12.5243ZM59.3683 13.0732C59.5497 12.48 59.8818 12.009 60.3846 11.6353L59.1914 10.0302C58.348 10.6572 57.7627 11.4848 57.4558 12.488L59.3683 13.0732ZM60.3846 11.6353C60.8299 11.3043 61.5124 11.0822 62.5399 11.0822V9.08223C61.2445 9.08223 60.0923 9.36055 59.1914 10.0302L60.3846 11.6353ZM62.5399 11.0822C63.2899 11.0822 63.9177 11.1976 64.4409 11.405L65.1779 9.54574C64.3787 9.22895 63.4936 9.08223 62.5399 9.08223V11.0822ZM64.4409 11.405C64.875 11.5771 65.1951 11.8625 65.4261 12.3002L67.1949 11.3667C66.7468 10.5178 66.0662 9.89785 65.1779 9.54574L64.4409 11.405ZM65.4281 12.3041C65.5651 12.561 65.6338 12.7932 65.655 13.0052L67.6451 12.8062C67.5948 12.3033 67.4371 11.8208 67.1928 11.3629L65.4281 12.3041ZM65.655 13.0052C65.6868 13.3231 65.7036 13.6882 65.7036 14.1029H67.7036C67.7036 13.6361 67.6847 13.203 67.6451 12.8062L65.655 13.0052ZM65.7036 14.1029V20H67.7036V14.1029H65.7036ZM66.7036 19H64.5771V21H66.7036V19ZM65.5771 20V18.0164H63.5771V20H65.5771ZM63.7729 18.6108L64.0767 19.0218L65.6851 17.8331L65.3813 17.4221L63.7729 18.6108ZM64.0712 17.8406C63.6648 18.4014 63.2635 18.7539 62.8829 18.9566L63.8231 20.7218C64.5386 20.3407 65.1559 19.7521 65.6906 19.0143L64.0712 17.8406ZM62.8865 18.9547C62.5307 19.1424 62.0163 19.268 61.2891 19.268V21.268C62.2297 21.268 63.0913 21.1078 63.8196 20.7237L62.8865 18.9547ZM61.8073 19.356C62.3648 19.356 62.9061 19.2599 63.3873 19.0146L62.4789 17.2328C62.3525 17.2972 62.1433 17.356 61.8073 17.356V19.356ZM63.3939 19.0112C63.7826 18.8093 64.1353 18.5579 64.4156 18.2403L62.9159 16.917C62.8388 17.0044 62.703 17.1164 62.4723 17.2362L63.3939 19.0112ZM64.4047 18.2524C64.6114 18.0257 64.8143 17.7702 64.9432 17.5008L63.1389 16.6379C63.1415 16.6324 63.1314 16.6541 63.093 16.7062C63.0561 16.7563 63.0022 16.8222 62.9268 16.9049L64.4047 18.2524ZM64.9435 17.5001C65.135 17.0988 65.2307 16.6619 65.2541 16.2096L63.2568 16.1063C63.2444 16.345 63.1972 16.5157 63.1385 16.6386L64.9435 17.5001ZM65.2532 16.2256C65.2778 15.8619 65.2912 15.5455 65.2912 15.2824H63.2912C63.2912 15.4838 63.2807 15.7512 63.2577 16.0903L65.2532 16.2256ZM64.0487 16.2525L64.7635 16.4312L65.2485 14.4909L64.5337 14.3122L64.0487 16.2525ZM64.8429 14.4744C64.1189 14.5941 63.5276 14.6966 63.0712 14.7818L63.4382 16.7479C63.8754 16.6663 64.4516 16.5663 65.1691 16.4477L64.8429 14.4744ZM63.084 14.7795C62.6273 14.8587 62.2439 14.9343 61.941 15.0067L62.4062 16.9519C62.6513 16.8932 62.9887 16.8259 63.4255 16.7502L63.084 14.7795ZM61.941 15.0067C61.6376 15.0793 61.3564 15.1617 61.1017 15.2563L61.7981 17.1311C61.9604 17.0709 62.1616 17.0103 62.4062 16.9519L61.941 15.0067ZM61.0785 15.2652C60.7854 15.3825 60.5055 15.5268 60.264 15.7103L61.4742 17.3026C61.5305 17.2598 61.6379 17.1956 61.8213 17.1222L61.0785 15.2652ZM60.2691 15.7064C60.0338 15.8829 59.8218 16.1059 59.6696 16.385L61.4254 17.3427C61.4161 17.3597 61.4185 17.3444 61.4691 17.3064L60.2691 15.7064ZM59.653 16.4166C59.5115 16.6997 59.4492 17.001 59.4492 17.3017H61.4492C61.4492 17.2894 61.4504 17.2865 61.4495 17.2906C61.449 17.2925 61.4482 17.2955 61.4469 17.2993C61.4455 17.3031 61.4439 17.3071 61.4419 17.3111L59.653 16.4166ZM59.4492 17.3017C59.4492 17.6909 59.5464 18.0809 59.778 18.4282L61.4421 17.3188C61.4446 17.3226 61.447 17.3269 61.4489 17.3312C61.4509 17.3354 61.4518 17.3383 61.452 17.3392C61.4526 17.3413 61.4492 17.3305 61.4492 17.3017H59.4492ZM59.8026 18.4635C60.0392 18.7873 60.3546 19.0122 60.7028 19.1556L61.4643 17.3062C61.4337 17.2936 61.4196 17.2837 61.4157 17.2808C61.4125 17.2784 61.4144 17.2794 61.4174 17.2835L59.8026 18.4635ZM60.7028 19.1556C61.0546 19.3004 61.4315 19.356 61.8073 19.356V17.356C61.6231 17.356 61.5175 17.3281 61.4643 17.3062L60.7028 19.1556ZM69.0268 20H68.0268V21H69.0268V20ZM69.0268 10.3503V9.35027H68.0268V10.3503H69.0268ZM71.1712 10.3503H72.1712V9.35027H71.1712V10.3503ZM71.1712 12.7091L70.3769 13.3165L72.1712 15.663V12.7091H71.1712ZM70.9389 12.4053L70.0026 12.0542L69.8081 12.5728L70.1446 13.0128L70.9389 12.4053ZM72.2077 10.8149L72.7147 11.6768L72.7233 11.6718L72.7318 11.6665L72.2077 10.8149ZM72.9672 10.4843L73.2391 11.4466L73.2487 11.4439L73.2583 11.441L72.9672 10.4843ZM73.816 10.3324L73.8771 11.3305L73.8872 11.3299L73.8973 11.3291L73.816 10.3324ZM74.6916 10.3503H75.6916V9.46526L74.8131 9.35769L74.6916 10.3503ZM74.6916 12.6197L74.3945 13.5746L75.6916 13.9781V12.6197H74.6916ZM73.7534 12.5393L73.8211 13.537L73.8288 13.5365L73.8365 13.5359L73.7534 12.5393ZM72.7974 12.7806L73.214 13.6896L73.2218 13.6861L73.2295 13.6824L72.7974 12.7806ZM72.0737 13.3077L72.8109 13.9835L72.82 13.9734L72.0737 13.3077ZM71.6269 14.0761L72.5717 14.4039L72.5737 14.398L71.6269 14.0761ZM71.475 20V21H72.475V20H71.475ZM70.0268 20V10.3503H68.0268V20H70.0268ZM69.0268 11.3503H71.1712V9.35027H69.0268V11.3503ZM70.1712 10.3503V12.7091H72.1712V10.3503H70.1712ZM71.9656 12.1016L71.7333 11.7979L70.1446 13.0128L70.3769 13.3165L71.9656 12.1016ZM71.8753 12.7564C71.9673 12.5109 72.0876 12.2933 72.2351 12.0995L70.6435 10.8884C70.374 11.2426 70.1607 11.6326 70.0026 12.0542L71.8753 12.7564ZM72.2351 12.0995C72.363 11.9314 72.5202 11.7912 72.7147 11.6768L71.7007 9.95296C71.2876 10.196 70.9325 10.5085 70.6435 10.8884L72.2351 12.0995ZM72.7318 11.6665C72.8822 11.574 73.0499 11.5001 73.2391 11.4466L72.6952 9.52199C72.3364 9.6234 71.9978 9.76986 71.6836 9.96323L72.7318 11.6665ZM73.2583 11.441C73.456 11.3808 73.6616 11.3437 73.8771 11.3305L73.7549 9.33427C73.3866 9.35682 73.0264 9.42099 72.676 9.52762L73.2583 11.441ZM73.8973 11.3291C74.1213 11.3108 74.3452 11.3153 74.5701 11.3429L74.8131 9.35769C74.4542 9.31374 74.0944 9.30635 73.7346 9.33572L73.8973 11.3291ZM73.6916 10.3503V12.6197H75.6916V10.3503H73.6916ZM74.9887 11.6649C74.5689 11.5343 74.1219 11.5052 73.6704 11.5428L73.8365 13.5359C74.0997 13.5139 74.2782 13.5384 74.3945 13.5746L74.9887 11.6649ZM73.6858 11.5416C73.2219 11.5731 72.7775 11.6812 72.3653 11.8788L73.2295 13.6824C73.3891 13.6059 73.5821 13.5532 73.8211 13.537L73.6858 11.5416ZM72.3807 11.8715C71.9776 12.0563 71.6217 12.3121 71.3274 12.6421L72.82 13.9734C72.9187 13.8626 73.0453 13.767 73.214 13.6896L72.3807 11.8715ZM71.3365 12.632C71.0389 12.9567 70.8223 13.336 70.6801 13.7542L72.5737 14.398C72.634 14.2206 72.7153 14.0877 72.8108 13.9835L71.3365 12.632ZM70.6822 13.7484C70.538 14.164 70.475 14.6082 70.475 15.0679H72.475C72.475 14.789 72.5133 14.5721 72.5717 14.4039L70.6822 13.7484ZM70.475 15.0679V20H72.475V15.0679H70.475ZM71.475 19H69.0268V21H71.475V19ZM82.181 20L82.3653 20.9829L83.181 20.8299V20H82.181ZM80.2153 20.1608L80.2431 19.1612L80.234 19.161L80.2153 20.1608ZM78.4998 19.8302L78.1059 20.7494L78.1125 20.7522L78.1191 20.7549L78.4998 19.8302ZM77.3562 18.8027L76.4764 19.2783L76.4825 19.2893L77.3562 18.8027ZM76.9809 17.4625L75.9812 17.4884L75.9812 17.4888L76.9809 17.4625ZM76.963 7.66979V6.66979H75.963V7.66979H76.963ZM79.3933 7.66979H80.3933V6.66979H79.3933V7.66979ZM79.4023 16.7834L78.4025 16.803L78.4027 16.8132L78.4031 16.8234L79.4023 16.7834ZM79.5899 17.4982L80.4354 16.9642L80.4347 16.9632L79.5899 17.4982ZM82.181 17.9807H83.181V16.8362L82.0468 16.9898L82.181 17.9807ZM75.319 12.2266H74.319V13.2266H75.319V12.2266ZM75.319 10.3503V9.35027H74.319V10.3503H75.319ZM82.181 10.3503H83.181V9.35027H82.181V10.3503ZM82.181 12.2266V13.2266H83.181V12.2266H82.181ZM81.9967 19.0171C81.3957 19.1298 80.8116 19.177 80.2431 19.1612L80.1876 21.1604C80.9057 21.1804 81.6321 21.1204 82.3653 20.9829L81.9967 19.0171ZM80.234 19.161C79.7009 19.151 79.2547 19.0596 78.8806 18.9056L78.1191 20.7549C78.7576 21.0178 79.4551 21.1468 80.1966 21.1607L80.234 19.161ZM78.8938 18.9111C78.5944 18.7828 78.383 18.5912 78.2298 18.3161L76.4825 19.2893C76.8535 19.9554 77.4045 20.4488 78.1059 20.7494L78.8938 18.9111ZM78.2359 18.3272C78.0642 18.0097 77.9879 17.7157 77.9805 17.4362L75.9812 17.4888C75.9977 18.1147 76.1715 18.7141 76.4765 19.2782L78.2359 18.3272ZM77.9806 17.4365C77.9689 16.9884 77.963 16.479 77.963 15.9078H75.963C75.963 16.4921 75.969 17.0193 75.9812 17.4884L77.9806 17.4365ZM77.963 15.9078V7.66979H75.963V15.9078H77.963ZM76.963 8.66979H79.3933V6.66979H76.963V8.66979ZM78.3933 7.66979V15.7648H80.3933V7.66979H78.3933ZM78.3933 15.7648C78.3933 16.1452 78.3963 16.4914 78.4025 16.803L80.4021 16.7638C80.3963 16.4679 80.3933 16.135 80.3933 15.7648H78.3933ZM78.4031 16.8234C78.4193 17.2288 78.507 17.6574 78.7451 18.0333L80.4347 16.9632C80.4464 16.9817 80.4091 16.9337 80.4015 16.7435L78.4031 16.8234ZM78.7444 18.0322C79.1615 18.6926 79.8271 19.0042 80.5542 19.0502L80.6806 17.0542C80.5594 17.0465 80.5024 17.022 80.4822 17.0111C80.4672 17.0031 80.4538 16.9935 80.4354 16.9642L78.7444 18.0322ZM80.5542 19.0502C81.1034 19.0849 81.6919 19.0561 82.3152 18.9717L82.0468 16.9898C81.5265 17.0602 81.0726 17.079 80.6806 17.0542L80.5542 19.0502ZM81.181 17.9807V20H83.181V17.9807H81.181ZM76.319 12.2266V10.3503H74.319V12.2266H76.319ZM75.319 11.3503H82.181V9.35027H75.319V11.3503ZM81.181 10.3503V12.2266H83.181V10.3503H81.181ZM82.181 11.2266H75.319V13.2266H82.181V11.2266ZM84.3314 20H83.3314V21H84.3314V20ZM84.3314 7.1337V6.1337H83.3314V7.1337H84.3314ZM91.7027 7.68767L91.1562 8.52512L91.1624 8.52913L91.7027 7.68767ZM92.9447 9.06364L93.8486 8.63598L93.8486 8.63597L92.9447 9.06364ZM92.8464 12.5393L92.0223 11.9728L92.0175 11.9799L92.8464 12.5393ZM91.5151 13.4954H90.5151V14.8192L91.7885 14.4573L91.5151 13.4954ZM91.5151 13.0486L91.7182 12.0695L90.5151 11.8199V13.0486H91.5151ZM93.3199 14.1655L92.4971 14.7338L92.5011 14.7395L93.3199 14.1655ZM93.4986 18.1326L92.6006 17.6927L92.597 17.7002L93.4986 18.1326ZM92.212 19.5086L92.7053 20.3785L92.712 20.3746L92.212 19.5086ZM86.7974 17.7127H85.7974V18.7127H86.7974V17.7127ZM90.6573 17.5072L91.129 18.3889L91.1369 18.3847L91.1447 18.3804L90.6573 17.5072ZM91.256 16.9174L90.3914 16.4148L90.3877 16.4213L91.256 16.9174ZM91.2917 15.2019L90.4063 15.6668L90.4063 15.6668L91.2917 15.2019ZM90.7199 14.639L90.2237 15.5073L90.2359 15.5142L90.2482 15.5208L90.7199 14.639ZM86.7974 14.4246V13.4246H85.7974V14.4246H86.7974ZM86.7974 12.1551H85.7974V13.1551H86.7974V12.1551ZM90.1749 12.0122L89.7687 11.0984L89.7687 11.0984L90.1749 12.0122ZM90.6841 11.5744L91.5279 12.1113L91.5349 12.0999L90.6841 11.5744ZM90.5054 9.80524L89.7662 10.4787L89.7662 10.4787L90.5054 9.80524ZM86.7974 9.40317V8.40317H85.7974V9.40317H86.7974ZM85.3314 20V7.1337H83.3314V20H85.3314ZM84.3314 8.1337H89.4779V6.1337H84.3314V8.1337ZM89.4779 8.1337C90.2686 8.1337 90.8014 8.29353 91.1562 8.5251L92.2493 6.85023C91.4723 6.34318 90.5219 6.1337 89.4779 6.1337V8.1337ZM91.1624 8.52913C91.5866 8.80151 91.8664 9.12289 92.0407 9.49131L93.8486 8.63597C93.4987 7.89647 92.9506 7.30053 92.243 6.8462L91.1624 8.52913ZM92.0407 9.49131C92.2449 9.92285 92.3378 10.3374 92.3378 10.7434H94.3378C94.3378 10.0176 94.1686 9.31237 93.8486 8.63598L92.0407 9.49131ZM92.3378 10.7434C92.3378 11.312 92.2099 11.7 92.0224 11.9728L93.6704 13.1059C94.1381 12.4256 94.3378 11.6163 94.3378 10.7434H92.3378ZM92.0175 11.9799C91.8311 12.256 91.5865 12.4355 91.2417 12.5335L91.7885 14.4573C92.5754 14.2336 93.2184 13.7757 93.6752 13.0988L92.0175 11.9799ZM92.5151 13.4954V13.0486H90.5151V13.4954H92.5151ZM91.312 14.0278C91.9102 14.1518 92.2687 14.403 92.4971 14.7338L94.1428 13.5972C93.573 12.7723 92.7283 12.279 91.7182 12.0695L91.312 14.0278ZM92.5011 14.7395C92.7866 15.1468 92.9275 15.5921 92.9275 16.1044H94.9275C94.9275 15.187 94.6634 14.3398 94.1388 13.5915L92.5011 14.7395ZM92.9275 16.1044C92.9275 16.7479 92.8083 17.2687 92.6006 17.6927L94.3967 18.5725C94.7609 17.829 94.9275 16.9977 94.9275 16.1044H92.9275ZM92.597 17.7002C92.4069 18.0964 92.121 18.4065 91.712 18.6425L92.712 20.3746C93.4587 19.9436 94.0304 19.3363 94.4003 18.565L92.597 17.7002ZM91.7188 18.6387C91.3318 18.8581 90.788 19 90.0319 19V21C91.0271 21 91.9366 20.8143 92.7053 20.3785L91.7188 18.6387ZM90.0319 19H84.3314V21H90.0319V19ZM86.7974 18.7127H89.7817V16.7127H86.7974V18.7127ZM89.7817 18.7127C90.2526 18.7127 90.7101 18.613 91.129 18.3889L90.1857 16.6254C90.0924 16.6753 89.9661 16.7127 89.7817 16.7127V18.7127ZM91.1447 18.3804C91.5567 18.1504 91.8893 17.8247 92.1242 17.4136L90.3877 16.4213C90.3368 16.5105 90.2702 16.578 90.17 16.634L91.1447 18.3804ZM92.1205 17.4201C92.3719 16.9876 92.4794 16.5074 92.4794 16.015H90.4794C90.4794 16.2136 90.4378 16.3351 90.3915 16.4148L92.1205 17.4201ZM92.4794 16.015C92.4794 15.5704 92.3867 15.1363 92.1771 14.7371L90.4063 15.6668C90.4469 15.7441 90.4794 15.8521 90.4794 16.015H92.4794ZM92.1771 14.7371C91.9515 14.3074 91.6095 13.9808 91.1915 13.7573L90.2482 15.5208C90.3425 15.5713 90.3818 15.62 90.4063 15.6668L92.1771 14.7371ZM91.216 13.7708C90.7757 13.5192 90.2798 13.4246 89.7817 13.4246V15.4246C90.0342 15.4246 90.1637 15.473 90.2237 15.5073L91.216 13.7708ZM89.7817 13.4246H86.7974V15.4246H89.7817V13.4246ZM85.7974 14.4246V17.7127H87.7974V14.4246H85.7974ZM86.7974 13.1551H89.4422V11.1551H86.7974V13.1551ZM89.4422 13.1551C89.8329 13.1551 90.219 13.0868 90.581 12.926L89.7687 11.0984C89.7018 11.1281 89.5995 11.1551 89.4422 11.1551V13.1551ZM90.581 12.926C90.9738 12.7514 91.2963 12.475 91.5278 12.1112L89.8405 11.0375C89.8218 11.0669 89.8048 11.0823 89.7687 11.0984L90.581 12.926ZM91.5349 12.0999C91.7845 11.6958 91.8718 11.2393 91.8718 10.797H89.8718C89.8718 10.9861 89.8339 11.0479 89.8333 11.0489L91.5349 12.0999ZM91.8718 10.797C91.8718 10.1775 91.6714 9.60016 91.2446 9.13175L89.7662 10.4787C89.8279 10.5464 89.8718 10.6302 89.8718 10.797H91.8718ZM91.2446 9.13175C90.7608 8.60074 90.104 8.40317 89.4422 8.40317V10.4032C89.7096 10.4032 89.7616 10.4736 89.7662 10.4787L91.2446 9.13175ZM89.4422 8.40317H86.7974V10.4032H89.4422V8.40317ZM85.7974 9.40317V12.1551H87.7974V9.40317H85.7974ZM95.8882 9.01003H94.8882V10.01H95.8882V9.01003ZM95.8882 6.86565V5.86565H94.8882V6.86565H95.8882ZM98.3185 6.86565H99.3185V5.86565H98.3185V6.86565ZM98.3185 9.01003V10.01H99.3185V9.01003H98.3185ZM95.8882 20H94.8882V21H95.8882V20ZM95.8882 10.3503V9.35027H94.8882V10.3503H95.8882ZM98.3185 10.3503H99.3185V9.35027H98.3185V10.3503ZM98.3185 20V21H99.3185V20H98.3185ZM96.8882 9.01003V6.86565H94.8882V9.01003H96.8882ZM95.8882 7.86565H98.3185V5.86565H95.8882V7.86565ZM97.3185 6.86565V9.01003H99.3185V6.86565H97.3185ZM98.3185 8.01003H95.8882V10.01H98.3185V8.01003ZM96.8882 20V10.3503H94.8882V20H96.8882ZM95.8882 11.3503H98.3185V9.35027H95.8882V11.3503ZM97.3185 10.3503V20H99.3185V10.3503H97.3185ZM98.3185 19H95.8882V21H98.3185V19ZM100.104 20H99.1037V21H100.104V20ZM100.104 19.6962L99.2669 19.1487L99.1037 19.3981V19.6962H100.104ZM104.839 12.4589L105.676 13.0064L106.689 11.4589H104.839V12.4589ZM100.64 12.4589H99.6398V13.4589H100.64V12.4589ZM100.64 10.3503V9.35027H99.6398V10.3503H100.64ZM108.592 10.3503H109.592V9.35027H108.592V10.3503ZM108.592 10.6541L109.43 11.2001L109.592 10.9512V10.6541H108.592ZM103.874 17.8914L103.036 17.3453L102.029 18.8914H103.874V17.8914ZM108.413 17.8914H109.413V16.8914H108.413V17.8914ZM108.413 20V21H109.413V20H108.413ZM101.104 20V19.6962H99.1037V20H101.104ZM100.94 20.2437L105.676 13.0064L104.002 11.9114L99.2669 19.1487L100.94 20.2437ZM104.839 11.4589H100.64V13.4589H104.839V11.4589ZM101.64 12.4589V10.3503H99.6398V12.4589H101.64ZM100.64 11.3503H108.592V9.35027H100.64V11.3503ZM107.592 10.3503V10.6541H109.592V10.3503H107.592ZM107.754 10.108L103.036 17.3453L104.712 18.4374L109.43 11.2001L107.754 10.108ZM103.874 18.8914H108.413V16.8914H103.874V18.8914ZM107.413 17.8914V20H109.413V17.8914H107.413ZM108.413 19H100.104V21H108.413V19Z" fill="black" mask="url(#path-4-outside-1_30_1258)"/>
</g>
<defs>
<filter id="filter0_d_30_1258" x="25.7145" y="6.86565" width="86.8773" height="21.4024" filterUnits="userSpaceOnUse" color-interpolation-filters="sRGB">
<feFlood flood-opacity="0" result="BackgroundImageFix"/>
<feColorMatrix in="SourceAlpha" type="matrix" values="0 0 0 0 0 0 0 0 0 0 0 0 0 0 0 0 0 0 127 0" result="hardAlpha"/>
<feOffset dy="4"/>
<feGaussianBlur stdDeviation="2"/>
<feComposite in2="hardAlpha" operator="out"/>
<feColorMatrix type="matrix" values="0 0 0 0 0 0 0 0 0 0 0 0 0 0 0 0 0 0 0.25 0"/>
<feBlend mode="normal" in2="BackgroundImageFix" result="effect1_dropShadow_30_1258"/>
<feBlend mode="normal" in="SourceGraphic" in2="effect1_dropShadow_30_1258" result="shape"/>
</filter>
</defs>
</svg>
